G75*
%MOIN*%
%OFA0B0*%
%FSLAX25Y25*%
%IPPOS*%
%LPD*%
%AMOC8*
5,1,8,0,0,1.08239X$1,22.5*
%
%ADD10C,0.00000*%
%ADD11OC8,0.05200*%
%ADD12C,0.05200*%
%ADD13C,0.07400*%
%ADD14C,0.05200*%
%ADD15C,0.05150*%
%ADD16C,0.11220*%
%ADD17C,0.05937*%
%ADD18C,0.01200*%
%ADD19C,0.02978*%
%ADD20C,0.01600*%
D10*
X0005060Y0001800D02*
X0005060Y0198650D01*
X0201910Y0198650D01*
X0201910Y0001800D01*
X0005060Y0001800D01*
D11*
X0035060Y0041800D03*
X0050060Y0041800D03*
X0050060Y0021800D03*
X0050060Y0011800D03*
X0070060Y0011800D03*
X0110060Y0011800D03*
X0130060Y0011800D03*
X0140060Y0011800D03*
X0175060Y0016800D03*
X0140060Y0096800D03*
X0145060Y0161800D03*
X0110060Y0181800D03*
X0105060Y0189300D03*
X0100060Y0181800D03*
X0065060Y0161800D03*
X0065060Y0151800D03*
X0050060Y0081800D03*
X0035060Y0081800D03*
X0020060Y0051800D03*
X0010060Y0051800D03*
X0185060Y0161800D03*
D12*
X0140060Y0076800D03*
X0155060Y0016800D03*
D13*
X0197560Y0066800D03*
X0197560Y0076800D03*
X0197560Y0086800D03*
X0197560Y0096800D03*
X0197560Y0106800D03*
X0197560Y0116800D03*
X0197560Y0126800D03*
X0197560Y0136800D03*
X0197560Y0147800D03*
X0197560Y0157800D03*
X0197560Y0167800D03*
X0197560Y0177800D03*
X0197560Y0187800D03*
X0175060Y0186800D03*
X0155060Y0186800D03*
X0065060Y0081800D03*
X0065060Y0071800D03*
X0065060Y0061800D03*
X0020060Y0031800D03*
X0020060Y0011800D03*
X0010060Y0066800D03*
X0010060Y0076800D03*
X0010060Y0086800D03*
X0010060Y0096800D03*
X0010060Y0106800D03*
X0010060Y0116800D03*
X0010060Y0126800D03*
X0010060Y0136800D03*
D14*
X0087460Y0136800D02*
X0092660Y0136800D01*
X0092660Y0126800D02*
X0087460Y0126800D01*
X0087460Y0116800D02*
X0092660Y0116800D01*
X0092660Y0106800D02*
X0087460Y0106800D01*
X0087460Y0096800D02*
X0092660Y0096800D01*
X0092660Y0086800D02*
X0087460Y0086800D01*
X0087460Y0076800D02*
X0092660Y0076800D01*
X0092660Y0066800D02*
X0087460Y0066800D01*
X0087460Y0056800D02*
X0092660Y0056800D01*
X0092660Y0046800D02*
X0087460Y0046800D01*
X0087460Y0036800D02*
X0092660Y0036800D01*
X0092660Y0026800D02*
X0087460Y0026800D01*
X0117460Y0026800D02*
X0122660Y0026800D01*
X0122660Y0036800D02*
X0117460Y0036800D01*
X0117460Y0046800D02*
X0122660Y0046800D01*
X0122660Y0056800D02*
X0117460Y0056800D01*
X0117460Y0066800D02*
X0122660Y0066800D01*
X0122660Y0076800D02*
X0117460Y0076800D01*
X0117460Y0086800D02*
X0122660Y0086800D01*
X0122660Y0096800D02*
X0117460Y0096800D01*
X0117460Y0106800D02*
X0122660Y0106800D01*
X0122660Y0116800D02*
X0117460Y0116800D01*
X0117460Y0126800D02*
X0122660Y0126800D01*
X0122660Y0136800D02*
X0117460Y0136800D01*
X0117460Y0146800D02*
X0122660Y0146800D01*
X0122660Y0156800D02*
X0117460Y0156800D01*
X0092660Y0156800D02*
X0087460Y0156800D01*
X0087460Y0146800D02*
X0092660Y0146800D01*
D15*
X0072934Y0186800D03*
X0065060Y0186800D03*
X0057186Y0186800D03*
X0040139Y0188099D03*
X0035414Y0184950D03*
X0040139Y0181800D03*
X0035414Y0178650D03*
X0040139Y0175501D03*
D16*
X0020060Y0167430D03*
X0020060Y0196170D03*
D17*
X0049312Y0186800D03*
X0080808Y0186800D03*
D18*
X0100060Y0166800D02*
X0090060Y0156800D01*
X0100060Y0166800D02*
X0135060Y0166800D01*
X0140060Y0161800D01*
X0145060Y0161800D01*
X0155060Y0166800D02*
X0155060Y0091800D01*
X0170060Y0076800D01*
X0197560Y0076800D01*
X0160060Y0131800D02*
X0186060Y0157800D01*
X0197560Y0157800D01*
X0155060Y0166800D02*
X0132560Y0189300D01*
X0105060Y0189300D01*
X0050060Y0171879D02*
X0050060Y0151800D01*
X0080060Y0121800D01*
X0095060Y0121800D01*
X0115060Y0101800D01*
X0125060Y0101800D01*
X0130060Y0096800D01*
X0130060Y0091800D01*
X0125060Y0086800D01*
X0120060Y0086800D01*
X0120060Y0096800D02*
X0110060Y0096800D01*
X0095060Y0111800D01*
X0080060Y0111800D01*
X0040060Y0151800D01*
X0040060Y0156800D01*
X0035060Y0151800D02*
X0085060Y0101800D01*
X0100060Y0101800D01*
X0100060Y0031800D01*
X0095060Y0026800D01*
X0090060Y0026800D01*
X0075060Y0031800D02*
X0090060Y0046800D01*
X0075060Y0031800D02*
X0030060Y0031800D01*
X0010060Y0051800D01*
X0020060Y0051800D02*
X0035060Y0066800D01*
X0035060Y0081800D01*
X0030060Y0086800D02*
X0044992Y0086800D01*
X0050060Y0081732D01*
X0050060Y0051800D01*
X0060060Y0041800D01*
X0050060Y0081732D02*
X0050060Y0081800D01*
X0030060Y0086800D02*
X0020060Y0076800D01*
X0010060Y0076800D01*
X0035060Y0151800D02*
X0035060Y0178296D01*
X0035414Y0178650D01*
X0040139Y0181800D02*
X0050060Y0171879D01*
D19*
X0040060Y0156800D03*
D20*
X0032460Y0156856D02*
X0009860Y0156856D01*
X0009860Y0158454D02*
X0032460Y0158454D01*
X0032460Y0160053D02*
X0022136Y0160053D01*
X0021574Y0159820D02*
X0024371Y0160978D01*
X0026512Y0163119D01*
X0027670Y0165916D01*
X0027670Y0168944D01*
X0026512Y0171741D01*
X0024371Y0173882D01*
X0021574Y0175040D01*
X0018546Y0175040D01*
X0015749Y0173882D01*
X0013608Y0171741D01*
X0012450Y0168944D01*
X0012450Y0165916D01*
X0013608Y0163119D01*
X0015749Y0160978D01*
X0018546Y0159820D01*
X0021574Y0159820D01*
X0025044Y0161651D02*
X0032460Y0161651D01*
X0032460Y0163250D02*
X0026566Y0163250D01*
X0027228Y0164848D02*
X0032460Y0164848D01*
X0032460Y0166447D02*
X0027670Y0166447D01*
X0027670Y0168045D02*
X0032460Y0168045D01*
X0032460Y0169644D02*
X0027380Y0169644D01*
X0026718Y0171242D02*
X0032460Y0171242D01*
X0032460Y0172841D02*
X0025412Y0172841D01*
X0023025Y0174439D02*
X0032460Y0174439D01*
X0032460Y0175135D02*
X0032460Y0151283D01*
X0032856Y0150327D01*
X0083587Y0099596D01*
X0083703Y0099548D01*
X0083560Y0099406D01*
X0082860Y0097715D01*
X0082860Y0095885D01*
X0083560Y0094194D01*
X0084854Y0092900D01*
X0086545Y0092200D01*
X0093575Y0092200D01*
X0095266Y0092900D01*
X0096560Y0094194D01*
X0097260Y0095885D01*
X0097260Y0097715D01*
X0096645Y0099200D01*
X0097460Y0099200D01*
X0097460Y0032877D01*
X0095274Y0030691D01*
X0095266Y0030700D01*
X0093575Y0031400D01*
X0086545Y0031400D01*
X0084854Y0030700D01*
X0083560Y0029406D01*
X0082860Y0027715D01*
X0082860Y0025885D01*
X0083560Y0024194D01*
X0084854Y0022900D01*
X0086545Y0022200D01*
X0093575Y0022200D01*
X0095266Y0022900D01*
X0096560Y0024194D01*
X0096863Y0024926D01*
X0097264Y0025327D01*
X0097264Y0025327D01*
X0101533Y0029596D01*
X0102264Y0030327D01*
X0102660Y0031283D01*
X0102660Y0100523D01*
X0108587Y0094596D01*
X0109543Y0094200D01*
X0113558Y0094200D01*
X0113560Y0094194D01*
X0114854Y0092900D01*
X0116545Y0092200D01*
X0123575Y0092200D01*
X0125266Y0092900D01*
X0126560Y0094194D01*
X0127260Y0095885D01*
X0127260Y0095923D01*
X0127460Y0095723D01*
X0127460Y0092877D01*
X0125274Y0090691D01*
X0125266Y0090700D01*
X0123575Y0091400D01*
X0116545Y0091400D01*
X0114854Y0090700D01*
X0113560Y0089406D01*
X0112860Y0087715D01*
X0112860Y0085885D01*
X0113560Y0084194D01*
X0114854Y0082900D01*
X0116545Y0082200D01*
X0123575Y0082200D01*
X0125266Y0082900D01*
X0126560Y0084194D01*
X0126863Y0084926D01*
X0131533Y0089596D01*
X0132264Y0090327D01*
X0132660Y0091283D01*
X0132660Y0097317D01*
X0132264Y0098273D01*
X0127264Y0103273D01*
X0126533Y0104004D01*
X0126417Y0104052D01*
X0126560Y0104194D01*
X0127260Y0105885D01*
X0127260Y0107715D01*
X0126560Y0109406D01*
X0125266Y0110700D01*
X0123575Y0111400D01*
X0116545Y0111400D01*
X0114854Y0110700D01*
X0113560Y0109406D01*
X0112860Y0107715D01*
X0112860Y0107677D01*
X0096533Y0124004D01*
X0096417Y0124052D01*
X0096560Y0124194D01*
X0097260Y0125885D01*
X0097260Y0127715D01*
X0096560Y0129406D01*
X0095266Y0130700D01*
X0093575Y0131400D01*
X0086545Y0131400D01*
X0084854Y0130700D01*
X0083560Y0129406D01*
X0082860Y0127715D01*
X0082860Y0125885D01*
X0083475Y0124400D01*
X0081137Y0124400D01*
X0052660Y0152877D01*
X0052660Y0172396D01*
X0052264Y0173352D01*
X0044714Y0180902D01*
X0044714Y0182710D01*
X0044017Y0184391D01*
X0043459Y0184950D01*
X0044017Y0185508D01*
X0044343Y0186296D01*
X0044343Y0185812D01*
X0045100Y0183986D01*
X0046498Y0182588D01*
X0048324Y0181831D01*
X0050300Y0181831D01*
X0052126Y0182588D01*
X0053524Y0183986D01*
X0053526Y0183990D01*
X0054595Y0182922D01*
X0056276Y0182225D01*
X0058096Y0182225D01*
X0059777Y0182922D01*
X0061064Y0184209D01*
X0061123Y0184350D01*
X0061182Y0184209D01*
X0062469Y0182922D01*
X0064150Y0182225D01*
X0065970Y0182225D01*
X0067651Y0182922D01*
X0068938Y0184209D01*
X0068997Y0184350D01*
X0069056Y0184209D01*
X0070343Y0182922D01*
X0072024Y0182225D01*
X0073844Y0182225D01*
X0075525Y0182922D01*
X0076594Y0183990D01*
X0076596Y0183986D01*
X0077994Y0182588D01*
X0079820Y0181831D01*
X0081796Y0181831D01*
X0083622Y0182588D01*
X0085020Y0183986D01*
X0085777Y0185812D01*
X0085777Y0187788D01*
X0085020Y0189614D01*
X0083622Y0191012D01*
X0081796Y0191768D01*
X0079820Y0191768D01*
X0077994Y0191012D01*
X0076596Y0189614D01*
X0076594Y0189610D01*
X0075525Y0190678D01*
X0073844Y0191375D01*
X0072024Y0191375D01*
X0070343Y0190678D01*
X0069056Y0189391D01*
X0068997Y0189250D01*
X0068938Y0189391D01*
X0067651Y0190678D01*
X0065970Y0191375D01*
X0064150Y0191375D01*
X0062469Y0190678D01*
X0061182Y0189391D01*
X0061123Y0189250D01*
X0061064Y0189391D01*
X0059777Y0190678D01*
X0058096Y0191375D01*
X0056276Y0191375D01*
X0054595Y0190678D01*
X0053526Y0189610D01*
X0053524Y0189614D01*
X0052126Y0191012D01*
X0050300Y0191768D01*
X0048324Y0191768D01*
X0046498Y0191012D01*
X0045100Y0189614D01*
X0044714Y0188682D01*
X0044714Y0189009D01*
X0044017Y0190691D01*
X0042730Y0191978D01*
X0041049Y0192674D01*
X0039229Y0192674D01*
X0037547Y0191978D01*
X0036260Y0190691D01*
X0035777Y0189524D01*
X0034504Y0189524D01*
X0032823Y0188828D01*
X0031536Y0187541D01*
X0030840Y0185860D01*
X0030840Y0184040D01*
X0031536Y0182358D01*
X0032094Y0181800D01*
X0031536Y0181242D01*
X0030840Y0179560D01*
X0030840Y0177740D01*
X0031536Y0176059D01*
X0032460Y0175135D01*
X0031557Y0176038D02*
X0009860Y0176038D01*
X0009860Y0177636D02*
X0030883Y0177636D01*
X0030840Y0179235D02*
X0009860Y0179235D01*
X0009860Y0180833D02*
X0031367Y0180833D01*
X0031505Y0182432D02*
X0009860Y0182432D01*
X0009860Y0184030D02*
X0030843Y0184030D01*
X0030840Y0185629D02*
X0009860Y0185629D01*
X0009860Y0187227D02*
X0031406Y0187227D01*
X0032821Y0188826D02*
X0022216Y0188826D01*
X0021574Y0188560D02*
X0024371Y0189718D01*
X0026512Y0191859D01*
X0027336Y0193850D01*
X0103105Y0193850D01*
X0100460Y0191205D01*
X0100460Y0187395D01*
X0101655Y0186200D01*
X0100060Y0186200D01*
X0100060Y0181800D01*
X0104460Y0181800D01*
X0104460Y0183623D01*
X0103382Y0184700D01*
X0106455Y0184700D01*
X0105460Y0183705D01*
X0105460Y0179895D01*
X0108155Y0177200D01*
X0111965Y0177200D01*
X0114660Y0179895D01*
X0114660Y0183705D01*
X0111965Y0186400D01*
X0108665Y0186400D01*
X0108965Y0186700D01*
X0131483Y0186700D01*
X0152460Y0165723D01*
X0152460Y0091283D01*
X0152856Y0090327D01*
X0153587Y0089596D01*
X0168587Y0074596D01*
X0169543Y0074200D01*
X0192467Y0074200D01*
X0192728Y0073571D01*
X0194331Y0071968D01*
X0195024Y0071681D01*
X0194677Y0071504D01*
X0193977Y0070995D01*
X0193365Y0070383D01*
X0192856Y0069683D01*
X0192463Y0068911D01*
X0192195Y0068088D01*
X0192060Y0067233D01*
X0192060Y0067000D01*
X0197110Y0067000D01*
X0197110Y0066600D01*
X0192060Y0066600D01*
X0192060Y0066367D01*
X0192195Y0065512D01*
X0192463Y0064689D01*
X0192856Y0063917D01*
X0193365Y0063217D01*
X0193977Y0062605D01*
X0194677Y0062096D01*
X0195449Y0061703D01*
X0196272Y0061435D01*
X0197110Y0061303D01*
X0197110Y0006600D01*
X0021854Y0006600D01*
X0022171Y0006703D01*
X0022943Y0007096D01*
X0023643Y0007605D01*
X0024255Y0008217D01*
X0024764Y0008917D01*
X0025157Y0009689D01*
X0025425Y0010512D01*
X0025560Y0011367D01*
X0025560Y0011600D01*
X0020260Y0011600D01*
X0020260Y0012000D01*
X0025560Y0012000D01*
X0025560Y0012233D01*
X0025425Y0013088D01*
X0025157Y0013911D01*
X0024764Y0014683D01*
X0024255Y0015383D01*
X0023643Y0015995D01*
X0022943Y0016504D01*
X0022171Y0016897D01*
X0021348Y0017165D01*
X0020493Y0017300D01*
X0020260Y0017300D01*
X0020260Y0012000D01*
X0019860Y0012000D01*
X0019860Y0017300D01*
X0019627Y0017300D01*
X0018772Y0017165D01*
X0017949Y0016897D01*
X0017177Y0016504D01*
X0016477Y0015995D01*
X0015865Y0015383D01*
X0015356Y0014683D01*
X0014963Y0013911D01*
X0014695Y0013088D01*
X0014560Y0012233D01*
X0014560Y0012000D01*
X0019860Y0012000D01*
X0019860Y0011600D01*
X0014560Y0011600D01*
X0014560Y0011367D01*
X0014695Y0010512D01*
X0014963Y0009689D01*
X0015356Y0008917D01*
X0015865Y0008217D01*
X0016477Y0007605D01*
X0017177Y0007096D01*
X0017949Y0006703D01*
X0018266Y0006600D01*
X0009860Y0006600D01*
X0009860Y0047200D01*
X0010983Y0047200D01*
X0020683Y0037500D01*
X0018926Y0037500D01*
X0016831Y0036632D01*
X0015228Y0035029D01*
X0014360Y0032934D01*
X0014360Y0030666D01*
X0015228Y0028571D01*
X0016831Y0026968D01*
X0018926Y0026100D01*
X0021194Y0026100D01*
X0023289Y0026968D01*
X0024892Y0028571D01*
X0025760Y0030666D01*
X0025760Y0032423D01*
X0028587Y0029596D01*
X0029543Y0029200D01*
X0075577Y0029200D01*
X0076533Y0029596D01*
X0082860Y0035923D01*
X0082860Y0035885D01*
X0083560Y0034194D01*
X0084854Y0032900D01*
X0086545Y0032200D01*
X0093575Y0032200D01*
X0095266Y0032900D01*
X0096560Y0034194D01*
X0097260Y0035885D01*
X0097260Y0037715D01*
X0096560Y0039406D01*
X0095266Y0040700D01*
X0093575Y0041400D01*
X0088337Y0041400D01*
X0089137Y0042200D01*
X0093575Y0042200D01*
X0095266Y0042900D01*
X0096560Y0044194D01*
X0097260Y0045885D01*
X0097260Y0047715D01*
X0096560Y0049406D01*
X0095266Y0050700D01*
X0093575Y0051400D01*
X0086545Y0051400D01*
X0084854Y0050700D01*
X0083560Y0049406D01*
X0082860Y0047715D01*
X0082860Y0045885D01*
X0083560Y0044194D01*
X0083669Y0044086D01*
X0073983Y0034400D01*
X0031137Y0034400D01*
X0018337Y0047200D01*
X0021965Y0047200D01*
X0024660Y0049895D01*
X0024660Y0052723D01*
X0037264Y0065327D01*
X0037660Y0066283D01*
X0037660Y0077895D01*
X0039660Y0079895D01*
X0039660Y0083705D01*
X0039165Y0084200D01*
X0043915Y0084200D01*
X0045460Y0082655D01*
X0045460Y0079895D01*
X0047460Y0077895D01*
X0047460Y0051283D01*
X0047856Y0050327D01*
X0051783Y0046400D01*
X0048155Y0046400D01*
X0045460Y0043705D01*
X0045460Y0039895D01*
X0048155Y0037200D01*
X0051965Y0037200D01*
X0054660Y0039895D01*
X0054660Y0043523D01*
X0058587Y0039596D01*
X0059543Y0039200D01*
X0060577Y0039200D01*
X0061533Y0039596D01*
X0062264Y0040327D01*
X0062660Y0041283D01*
X0062660Y0042317D01*
X0062264Y0043273D01*
X0052660Y0052877D01*
X0052660Y0077895D01*
X0054660Y0079895D01*
X0054660Y0083705D01*
X0051965Y0086400D01*
X0049069Y0086400D01*
X0046465Y0089004D01*
X0045509Y0089400D01*
X0029543Y0089400D01*
X0028587Y0089004D01*
X0027856Y0088273D01*
X0018983Y0079400D01*
X0015153Y0079400D01*
X0014892Y0080029D01*
X0013289Y0081632D01*
X0012884Y0081800D01*
X0013289Y0081968D01*
X0014892Y0083571D01*
X0015760Y0085666D01*
X0015760Y0087934D01*
X0014892Y0090029D01*
X0013289Y0091632D01*
X0012884Y0091800D01*
X0013289Y0091968D01*
X0014892Y0093571D01*
X0015760Y0095666D01*
X0015760Y0097934D01*
X0014892Y0100029D01*
X0013289Y0101632D01*
X0012884Y0101800D01*
X0013289Y0101968D01*
X0014892Y0103571D01*
X0015760Y0105666D01*
X0015760Y0107934D01*
X0014892Y0110029D01*
X0013289Y0111632D01*
X0012884Y0111800D01*
X0013289Y0111968D01*
X0014892Y0113571D01*
X0015760Y0115666D01*
X0015760Y0117934D01*
X0014892Y0120029D01*
X0013289Y0121632D01*
X0012884Y0121800D01*
X0013289Y0121968D01*
X0014892Y0123571D01*
X0015760Y0125666D01*
X0015760Y0127934D01*
X0014892Y0130029D01*
X0013289Y0131632D01*
X0012884Y0131800D01*
X0013289Y0131968D01*
X0014892Y0133571D01*
X0015760Y0135666D01*
X0015760Y0137934D01*
X0014892Y0140029D01*
X0013289Y0141632D01*
X0011194Y0142500D01*
X0009860Y0142500D01*
X0009860Y0193850D01*
X0012784Y0193850D01*
X0013608Y0191859D01*
X0015749Y0189718D01*
X0018546Y0188560D01*
X0021574Y0188560D01*
X0025077Y0190424D02*
X0036150Y0190424D01*
X0037657Y0192023D02*
X0026579Y0192023D01*
X0027242Y0193621D02*
X0102876Y0193621D01*
X0101277Y0192023D02*
X0042621Y0192023D01*
X0044127Y0190424D02*
X0045910Y0190424D01*
X0044773Y0188826D02*
X0044714Y0188826D01*
X0044419Y0185629D02*
X0044067Y0185629D01*
X0044167Y0184030D02*
X0045081Y0184030D01*
X0044714Y0182432D02*
X0046874Y0182432D01*
X0044782Y0180833D02*
X0095660Y0180833D01*
X0095660Y0179977D02*
X0098237Y0177400D01*
X0100060Y0177400D01*
X0101883Y0177400D01*
X0104460Y0179977D01*
X0104460Y0181800D01*
X0100060Y0181800D01*
X0100060Y0181800D01*
X0100060Y0181800D01*
X0100060Y0177400D01*
X0100060Y0181800D01*
X0100060Y0181800D01*
X0100060Y0181800D01*
X0095660Y0181800D01*
X0095660Y0183623D01*
X0098237Y0186200D01*
X0100060Y0186200D01*
X0100060Y0181800D01*
X0095660Y0181800D01*
X0095660Y0179977D01*
X0096403Y0179235D02*
X0046381Y0179235D01*
X0047979Y0177636D02*
X0098001Y0177636D01*
X0100060Y0177636D02*
X0100060Y0177636D01*
X0100060Y0179235D02*
X0100060Y0179235D01*
X0100060Y0180833D02*
X0100060Y0180833D01*
X0100060Y0182432D02*
X0100060Y0182432D01*
X0100060Y0184030D02*
X0100060Y0184030D01*
X0100060Y0185629D02*
X0100060Y0185629D01*
X0100627Y0187227D02*
X0085777Y0187227D01*
X0085701Y0185629D02*
X0097666Y0185629D01*
X0096068Y0184030D02*
X0085039Y0184030D01*
X0083246Y0182432D02*
X0095660Y0182432D01*
X0100460Y0188826D02*
X0085347Y0188826D01*
X0084210Y0190424D02*
X0100460Y0190424D01*
X0104052Y0184030D02*
X0105785Y0184030D01*
X0105460Y0182432D02*
X0104460Y0182432D01*
X0104460Y0180833D02*
X0105460Y0180833D01*
X0106120Y0179235D02*
X0103717Y0179235D01*
X0102119Y0177636D02*
X0107718Y0177636D01*
X0112402Y0177636D02*
X0140547Y0177636D01*
X0142145Y0176038D02*
X0049578Y0176038D01*
X0051176Y0174439D02*
X0143744Y0174439D01*
X0145342Y0172841D02*
X0052476Y0172841D01*
X0052660Y0171242D02*
X0146941Y0171242D01*
X0148539Y0169644D02*
X0052660Y0169644D01*
X0052660Y0168045D02*
X0097628Y0168045D01*
X0098587Y0169004D02*
X0090983Y0161400D01*
X0086545Y0161400D01*
X0084854Y0160700D01*
X0083560Y0159406D01*
X0082860Y0157715D01*
X0082860Y0155885D01*
X0083560Y0154194D01*
X0084854Y0152900D01*
X0086545Y0152200D01*
X0093575Y0152200D01*
X0095266Y0152900D01*
X0096560Y0154194D01*
X0097260Y0155885D01*
X0097260Y0157715D01*
X0096560Y0159406D01*
X0096451Y0159514D01*
X0101137Y0164200D01*
X0133983Y0164200D01*
X0138587Y0159596D01*
X0139543Y0159200D01*
X0141155Y0159200D01*
X0143155Y0157200D01*
X0146965Y0157200D01*
X0149660Y0159895D01*
X0149660Y0163705D01*
X0146965Y0166400D01*
X0143155Y0166400D01*
X0141155Y0164400D01*
X0141137Y0164400D01*
X0137264Y0168273D01*
X0136533Y0169004D01*
X0135577Y0169400D01*
X0099543Y0169400D01*
X0098587Y0169004D01*
X0096030Y0166447D02*
X0052660Y0166447D01*
X0052660Y0164848D02*
X0061603Y0164848D01*
X0060460Y0163705D02*
X0060460Y0159895D01*
X0063155Y0157200D01*
X0066965Y0157200D01*
X0069660Y0159895D01*
X0069660Y0163705D01*
X0066965Y0166400D01*
X0063155Y0166400D01*
X0060460Y0163705D01*
X0060460Y0163250D02*
X0052660Y0163250D01*
X0052660Y0161651D02*
X0060460Y0161651D01*
X0060460Y0160053D02*
X0052660Y0160053D01*
X0052660Y0158454D02*
X0061900Y0158454D01*
X0063237Y0156200D02*
X0060660Y0153623D01*
X0060660Y0151800D01*
X0065060Y0151800D01*
X0069460Y0151800D01*
X0069460Y0153623D01*
X0066883Y0156200D01*
X0065060Y0156200D01*
X0065060Y0151800D01*
X0065060Y0151800D01*
X0065060Y0151800D01*
X0069460Y0151800D01*
X0069460Y0149977D01*
X0066883Y0147400D01*
X0065060Y0147400D01*
X0065060Y0151800D01*
X0065060Y0151800D01*
X0065060Y0151800D01*
X0065060Y0156200D01*
X0063237Y0156200D01*
X0062295Y0155257D02*
X0052660Y0155257D01*
X0052660Y0153659D02*
X0060696Y0153659D01*
X0060660Y0152060D02*
X0053477Y0152060D01*
X0055075Y0150462D02*
X0060660Y0150462D01*
X0060660Y0149977D02*
X0063237Y0147400D01*
X0065060Y0147400D01*
X0065060Y0151800D01*
X0060660Y0151800D01*
X0060660Y0149977D01*
X0061774Y0148863D02*
X0056674Y0148863D01*
X0058272Y0147265D02*
X0082860Y0147265D01*
X0082860Y0147715D02*
X0082860Y0145885D01*
X0083560Y0144194D01*
X0084854Y0142900D01*
X0086545Y0142200D01*
X0093575Y0142200D01*
X0095266Y0142900D01*
X0096560Y0144194D01*
X0097260Y0145885D01*
X0097260Y0147715D01*
X0096560Y0149406D01*
X0095266Y0150700D01*
X0093575Y0151400D01*
X0086545Y0151400D01*
X0084854Y0150700D01*
X0083560Y0149406D01*
X0082860Y0147715D01*
X0083336Y0148863D02*
X0068346Y0148863D01*
X0069460Y0150462D02*
X0084616Y0150462D01*
X0084096Y0153659D02*
X0069424Y0153659D01*
X0069460Y0152060D02*
X0152460Y0152060D01*
X0152460Y0150462D02*
X0125106Y0150462D01*
X0124966Y0150563D02*
X0124349Y0150878D01*
X0123690Y0151092D01*
X0123006Y0151200D01*
X0120060Y0151200D01*
X0120060Y0146800D01*
X0127060Y0146800D01*
X0127060Y0147146D01*
X0126952Y0147830D01*
X0126738Y0148489D01*
X0126423Y0149106D01*
X0126016Y0149666D01*
X0125526Y0150156D01*
X0124966Y0150563D01*
X0123575Y0152200D02*
X0125266Y0152900D01*
X0126560Y0154194D01*
X0127260Y0155885D01*
X0127260Y0157715D01*
X0126560Y0159406D01*
X0125266Y0160700D01*
X0123575Y0161400D01*
X0116545Y0161400D01*
X0114854Y0160700D01*
X0113560Y0159406D01*
X0112860Y0157715D01*
X0112860Y0155885D01*
X0113560Y0154194D01*
X0114854Y0152900D01*
X0116545Y0152200D01*
X0123575Y0152200D01*
X0126024Y0153659D02*
X0152460Y0153659D01*
X0152460Y0155257D02*
X0127000Y0155257D01*
X0127260Y0156856D02*
X0152460Y0156856D01*
X0152460Y0158454D02*
X0148219Y0158454D01*
X0149660Y0160053D02*
X0152460Y0160053D01*
X0152460Y0161651D02*
X0149660Y0161651D01*
X0149660Y0163250D02*
X0152460Y0163250D01*
X0152460Y0164848D02*
X0148517Y0164848D01*
X0150138Y0168045D02*
X0137492Y0168045D01*
X0139090Y0166447D02*
X0151736Y0166447D01*
X0155893Y0169644D02*
X0192376Y0169644D01*
X0192463Y0169911D02*
X0192195Y0169088D01*
X0192060Y0168233D01*
X0192060Y0168000D01*
X0197110Y0168000D01*
X0197110Y0167600D01*
X0192060Y0167600D01*
X0192060Y0167367D01*
X0192195Y0166512D01*
X0192463Y0165689D01*
X0192856Y0164917D01*
X0193365Y0164217D01*
X0193977Y0163605D01*
X0194677Y0163096D01*
X0195024Y0162919D01*
X0194331Y0162632D01*
X0192728Y0161029D01*
X0192467Y0160400D01*
X0189660Y0160400D01*
X0189660Y0163705D01*
X0186965Y0166400D01*
X0183155Y0166400D01*
X0180460Y0163705D01*
X0180460Y0159895D01*
X0182469Y0157886D01*
X0157856Y0133273D01*
X0157660Y0132800D01*
X0157660Y0167317D01*
X0157264Y0168273D01*
X0156533Y0169004D01*
X0134033Y0191504D01*
X0133077Y0191900D01*
X0108965Y0191900D01*
X0107015Y0193850D01*
X0197110Y0193850D01*
X0197110Y0193500D01*
X0196426Y0193500D01*
X0194331Y0192632D01*
X0192728Y0191029D01*
X0191860Y0188934D01*
X0191860Y0186666D01*
X0192728Y0184571D01*
X0194331Y0182968D01*
X0194736Y0182800D01*
X0194331Y0182632D01*
X0192728Y0181029D01*
X0191860Y0178934D01*
X0191860Y0176666D01*
X0192728Y0174571D01*
X0194331Y0172968D01*
X0195024Y0172681D01*
X0194677Y0172504D01*
X0193977Y0171995D01*
X0193365Y0171383D01*
X0192856Y0170683D01*
X0192463Y0169911D01*
X0193263Y0171242D02*
X0154295Y0171242D01*
X0152696Y0172841D02*
X0194638Y0172841D01*
X0192860Y0174439D02*
X0151098Y0174439D01*
X0149499Y0176038D02*
X0192120Y0176038D01*
X0191860Y0177636D02*
X0147901Y0177636D01*
X0146302Y0179235D02*
X0191985Y0179235D01*
X0192647Y0180833D02*
X0144704Y0180833D01*
X0143105Y0182432D02*
X0151715Y0182432D01*
X0151477Y0182605D02*
X0152177Y0182096D01*
X0152949Y0181703D01*
X0153772Y0181435D01*
X0154627Y0181300D01*
X0154860Y0181300D01*
X0154860Y0186600D01*
X0155260Y0186600D01*
X0155260Y0187000D01*
X0160560Y0187000D01*
X0160560Y0187233D01*
X0160425Y0188088D01*
X0160157Y0188911D01*
X0159764Y0189683D01*
X0159255Y0190383D01*
X0158643Y0190995D01*
X0157943Y0191504D01*
X0157171Y0191897D01*
X0156348Y0192165D01*
X0155493Y0192300D01*
X0155260Y0192300D01*
X0155260Y0187000D01*
X0154860Y0187000D01*
X0154860Y0192300D01*
X0154627Y0192300D01*
X0153772Y0192165D01*
X0152949Y0191897D01*
X0152177Y0191504D01*
X0151477Y0190995D01*
X0150865Y0190383D01*
X0150356Y0189683D01*
X0149963Y0188911D01*
X0149695Y0188088D01*
X0149560Y0187233D01*
X0149560Y0187000D01*
X0154860Y0187000D01*
X0154860Y0186600D01*
X0149560Y0186600D01*
X0149560Y0186367D01*
X0149695Y0185512D01*
X0149963Y0184689D01*
X0150356Y0183917D01*
X0150865Y0183217D01*
X0151477Y0182605D01*
X0150298Y0184030D02*
X0141507Y0184030D01*
X0139908Y0185629D02*
X0149677Y0185629D01*
X0149560Y0187227D02*
X0138310Y0187227D01*
X0136711Y0188826D02*
X0149935Y0188826D01*
X0150906Y0190424D02*
X0135113Y0190424D01*
X0132554Y0185629D02*
X0112737Y0185629D01*
X0114335Y0184030D02*
X0134153Y0184030D01*
X0135751Y0182432D02*
X0114660Y0182432D01*
X0114660Y0180833D02*
X0137350Y0180833D01*
X0138948Y0179235D02*
X0114000Y0179235D01*
X0108842Y0192023D02*
X0153336Y0192023D01*
X0154860Y0192023D02*
X0155260Y0192023D01*
X0156784Y0192023D02*
X0172774Y0192023D01*
X0171831Y0191632D02*
X0170228Y0190029D01*
X0169360Y0187934D01*
X0169360Y0185666D01*
X0170228Y0183571D01*
X0171831Y0181968D01*
X0173926Y0181100D01*
X0176194Y0181100D01*
X0178289Y0181968D01*
X0179892Y0183571D01*
X0180760Y0185666D01*
X0180760Y0187934D01*
X0179892Y0190029D01*
X0178289Y0191632D01*
X0176194Y0192500D01*
X0173926Y0192500D01*
X0171831Y0191632D01*
X0170623Y0190424D02*
X0159214Y0190424D01*
X0160185Y0188826D02*
X0169729Y0188826D01*
X0169360Y0187227D02*
X0160560Y0187227D01*
X0160560Y0186600D02*
X0155260Y0186600D01*
X0155260Y0181300D01*
X0155493Y0181300D01*
X0156348Y0181435D01*
X0157171Y0181703D01*
X0157943Y0182096D01*
X0158643Y0182605D01*
X0159255Y0183217D01*
X0159764Y0183917D01*
X0160157Y0184689D01*
X0160425Y0185512D01*
X0160560Y0186367D01*
X0160560Y0186600D01*
X0160443Y0185629D02*
X0169375Y0185629D01*
X0170038Y0184030D02*
X0159822Y0184030D01*
X0158405Y0182432D02*
X0171367Y0182432D01*
X0178753Y0182432D02*
X0194131Y0182432D01*
X0193269Y0184030D02*
X0180082Y0184030D01*
X0180744Y0185629D02*
X0192290Y0185629D01*
X0191860Y0187227D02*
X0180760Y0187227D01*
X0180391Y0188826D02*
X0191860Y0188826D01*
X0192477Y0190424D02*
X0179497Y0190424D01*
X0177346Y0192023D02*
X0193722Y0192023D01*
X0197110Y0193621D02*
X0107244Y0193621D01*
X0077406Y0190424D02*
X0075779Y0190424D01*
X0070089Y0190424D02*
X0067905Y0190424D01*
X0062215Y0190424D02*
X0060031Y0190424D01*
X0054341Y0190424D02*
X0052714Y0190424D01*
X0051749Y0182432D02*
X0055777Y0182432D01*
X0058595Y0182432D02*
X0063651Y0182432D01*
X0061360Y0184030D02*
X0060886Y0184030D01*
X0066469Y0182432D02*
X0071525Y0182432D01*
X0069234Y0184030D02*
X0068760Y0184030D01*
X0074343Y0182432D02*
X0078371Y0182432D01*
X0068517Y0164848D02*
X0094431Y0164848D01*
X0092833Y0163250D02*
X0069660Y0163250D01*
X0069660Y0161651D02*
X0091234Y0161651D01*
X0096990Y0160053D02*
X0114207Y0160053D01*
X0113166Y0158454D02*
X0096954Y0158454D01*
X0097260Y0156856D02*
X0112860Y0156856D01*
X0113120Y0155257D02*
X0097000Y0155257D01*
X0096024Y0153659D02*
X0114096Y0153659D01*
X0115771Y0150878D02*
X0115154Y0150563D01*
X0114594Y0150156D01*
X0114104Y0149666D01*
X0113697Y0149106D01*
X0113382Y0148489D01*
X0113168Y0147830D01*
X0113060Y0147146D01*
X0113060Y0146800D01*
X0120060Y0146800D01*
X0120060Y0146800D01*
X0120060Y0146800D01*
X0127060Y0146800D01*
X0127060Y0146454D01*
X0126952Y0145770D01*
X0126738Y0145111D01*
X0126423Y0144494D01*
X0126016Y0143934D01*
X0125526Y0143444D01*
X0124966Y0143037D01*
X0124349Y0142722D01*
X0123690Y0142508D01*
X0123006Y0142400D01*
X0120060Y0142400D01*
X0120060Y0146800D01*
X0120060Y0146800D01*
X0120060Y0146800D01*
X0120060Y0151200D01*
X0117114Y0151200D01*
X0116430Y0151092D01*
X0115771Y0150878D01*
X0115014Y0150462D02*
X0095504Y0150462D01*
X0096784Y0148863D02*
X0113573Y0148863D01*
X0113079Y0147265D02*
X0097260Y0147265D01*
X0097169Y0145666D02*
X0113202Y0145666D01*
X0113168Y0145770D02*
X0113382Y0145111D01*
X0113697Y0144494D01*
X0114104Y0143934D01*
X0114594Y0143444D01*
X0115154Y0143037D01*
X0115771Y0142722D01*
X0116430Y0142508D01*
X0117114Y0142400D01*
X0120060Y0142400D01*
X0120060Y0146800D01*
X0113060Y0146800D01*
X0113060Y0146454D01*
X0113168Y0145770D01*
X0114007Y0144068D02*
X0096433Y0144068D01*
X0094224Y0142469D02*
X0116678Y0142469D01*
X0116545Y0141400D02*
X0114854Y0140700D01*
X0113560Y0139406D01*
X0112860Y0137715D01*
X0112860Y0135885D01*
X0113560Y0134194D01*
X0114854Y0132900D01*
X0116545Y0132200D01*
X0123575Y0132200D01*
X0125266Y0132900D01*
X0126560Y0134194D01*
X0127260Y0135885D01*
X0127260Y0137715D01*
X0126560Y0139406D01*
X0125266Y0140700D01*
X0123575Y0141400D01*
X0116545Y0141400D01*
X0115267Y0140870D02*
X0094853Y0140870D01*
X0095266Y0140700D02*
X0093575Y0141400D01*
X0086545Y0141400D01*
X0084854Y0140700D01*
X0083560Y0139406D01*
X0082860Y0137715D01*
X0082860Y0135885D01*
X0083560Y0134194D01*
X0084854Y0132900D01*
X0086545Y0132200D01*
X0093575Y0132200D01*
X0095266Y0132900D01*
X0096560Y0134194D01*
X0097260Y0135885D01*
X0097260Y0137715D01*
X0096560Y0139406D01*
X0095266Y0140700D01*
X0096615Y0139272D02*
X0113505Y0139272D01*
X0112860Y0137673D02*
X0097260Y0137673D01*
X0097260Y0136075D02*
X0112860Y0136075D01*
X0113443Y0134476D02*
X0096677Y0134476D01*
X0095212Y0132878D02*
X0114908Y0132878D01*
X0116254Y0131279D02*
X0093866Y0131279D01*
X0096284Y0129681D02*
X0113836Y0129681D01*
X0113560Y0129406D02*
X0112860Y0127715D01*
X0112860Y0125885D01*
X0113560Y0124194D01*
X0114854Y0122900D01*
X0116545Y0122200D01*
X0123575Y0122200D01*
X0125266Y0122900D01*
X0126560Y0124194D01*
X0127260Y0125885D01*
X0127260Y0127715D01*
X0126560Y0129406D01*
X0125266Y0130700D01*
X0123575Y0131400D01*
X0116545Y0131400D01*
X0114854Y0130700D01*
X0113560Y0129406D01*
X0113012Y0128082D02*
X0097108Y0128082D01*
X0097260Y0126484D02*
X0112860Y0126484D01*
X0113274Y0124885D02*
X0096846Y0124885D01*
X0097250Y0123287D02*
X0114468Y0123287D01*
X0114854Y0120700D02*
X0113560Y0119406D01*
X0112860Y0117715D01*
X0112860Y0115885D01*
X0113560Y0114194D01*
X0114854Y0112900D01*
X0116545Y0112200D01*
X0123575Y0112200D01*
X0125266Y0112900D01*
X0126560Y0114194D01*
X0127260Y0115885D01*
X0127260Y0117715D01*
X0126560Y0119406D01*
X0125266Y0120700D01*
X0123575Y0121400D01*
X0116545Y0121400D01*
X0114854Y0120700D01*
X0114244Y0120090D02*
X0100447Y0120090D01*
X0098849Y0121688D02*
X0152460Y0121688D01*
X0152460Y0120090D02*
X0125876Y0120090D01*
X0126938Y0118491D02*
X0152460Y0118491D01*
X0152460Y0116893D02*
X0127260Y0116893D01*
X0127015Y0115294D02*
X0152460Y0115294D01*
X0152460Y0113696D02*
X0126061Y0113696D01*
X0125467Y0110499D02*
X0152460Y0110499D01*
X0152460Y0112097D02*
X0108440Y0112097D01*
X0110038Y0110499D02*
X0114653Y0110499D01*
X0113351Y0108900D02*
X0111637Y0108900D01*
X0114059Y0113696D02*
X0106841Y0113696D01*
X0105243Y0115294D02*
X0113105Y0115294D01*
X0112860Y0116893D02*
X0103644Y0116893D01*
X0102046Y0118491D02*
X0113182Y0118491D01*
X0125652Y0123287D02*
X0152460Y0123287D01*
X0152460Y0124885D02*
X0126846Y0124885D01*
X0127260Y0126484D02*
X0152460Y0126484D01*
X0152460Y0128082D02*
X0127108Y0128082D01*
X0126284Y0129681D02*
X0152460Y0129681D01*
X0152460Y0131279D02*
X0123866Y0131279D01*
X0125212Y0132878D02*
X0152460Y0132878D01*
X0152460Y0134476D02*
X0126677Y0134476D01*
X0127260Y0136075D02*
X0152460Y0136075D01*
X0152460Y0137673D02*
X0127260Y0137673D01*
X0126615Y0139272D02*
X0152460Y0139272D01*
X0152460Y0140870D02*
X0124853Y0140870D01*
X0123442Y0142469D02*
X0152460Y0142469D01*
X0152460Y0144068D02*
X0126113Y0144068D01*
X0126918Y0145666D02*
X0152460Y0145666D01*
X0152460Y0147265D02*
X0127041Y0147265D01*
X0126547Y0148863D02*
X0152460Y0148863D01*
X0157660Y0148863D02*
X0173446Y0148863D01*
X0171848Y0147265D02*
X0157660Y0147265D01*
X0157660Y0145666D02*
X0170249Y0145666D01*
X0168651Y0144068D02*
X0157660Y0144068D01*
X0157660Y0142469D02*
X0167052Y0142469D01*
X0165454Y0140870D02*
X0157660Y0140870D01*
X0157660Y0139272D02*
X0163855Y0139272D01*
X0162257Y0137673D02*
X0157660Y0137673D01*
X0157660Y0136075D02*
X0160658Y0136075D01*
X0159059Y0134476D02*
X0157660Y0134476D01*
X0157660Y0132878D02*
X0157692Y0132878D01*
X0157660Y0150462D02*
X0175045Y0150462D01*
X0176643Y0152060D02*
X0157660Y0152060D01*
X0157660Y0153659D02*
X0178242Y0153659D01*
X0179840Y0155257D02*
X0157660Y0155257D01*
X0157660Y0156856D02*
X0181439Y0156856D01*
X0181900Y0158454D02*
X0157660Y0158454D01*
X0157660Y0160053D02*
X0180460Y0160053D01*
X0180460Y0161651D02*
X0157660Y0161651D01*
X0157660Y0163250D02*
X0180460Y0163250D01*
X0181603Y0164848D02*
X0157660Y0164848D01*
X0157660Y0166447D02*
X0192217Y0166447D01*
X0192060Y0168045D02*
X0157358Y0168045D01*
X0155260Y0182432D02*
X0154860Y0182432D01*
X0154860Y0184030D02*
X0155260Y0184030D01*
X0155260Y0185629D02*
X0154860Y0185629D01*
X0154860Y0187227D02*
X0155260Y0187227D01*
X0155260Y0188826D02*
X0154860Y0188826D01*
X0154860Y0190424D02*
X0155260Y0190424D01*
X0141603Y0164848D02*
X0140689Y0164848D01*
X0136532Y0161651D02*
X0098588Y0161651D01*
X0100187Y0163250D02*
X0134933Y0163250D01*
X0138130Y0160053D02*
X0125913Y0160053D01*
X0126954Y0158454D02*
X0141900Y0158454D01*
X0120060Y0150462D02*
X0120060Y0150462D01*
X0120060Y0148863D02*
X0120060Y0148863D01*
X0120060Y0147265D02*
X0120060Y0147265D01*
X0120060Y0145666D02*
X0120060Y0145666D01*
X0120060Y0144068D02*
X0120060Y0144068D01*
X0120060Y0142469D02*
X0120060Y0142469D01*
X0085896Y0142469D02*
X0063068Y0142469D01*
X0064666Y0140870D02*
X0085267Y0140870D01*
X0083505Y0139272D02*
X0066265Y0139272D01*
X0067863Y0137673D02*
X0082860Y0137673D01*
X0082860Y0136075D02*
X0069462Y0136075D01*
X0071060Y0134476D02*
X0083443Y0134476D01*
X0084908Y0132878D02*
X0072659Y0132878D01*
X0074258Y0131279D02*
X0086254Y0131279D01*
X0083836Y0129681D02*
X0075856Y0129681D01*
X0077455Y0128082D02*
X0083012Y0128082D01*
X0082860Y0126484D02*
X0079053Y0126484D01*
X0080652Y0124885D02*
X0083274Y0124885D01*
X0071086Y0112097D02*
X0013418Y0112097D01*
X0014422Y0110499D02*
X0072684Y0110499D01*
X0074283Y0108900D02*
X0015360Y0108900D01*
X0015760Y0107302D02*
X0075881Y0107302D01*
X0077480Y0105703D02*
X0015760Y0105703D01*
X0015113Y0104105D02*
X0079078Y0104105D01*
X0080677Y0102506D02*
X0013827Y0102506D01*
X0014013Y0100908D02*
X0082275Y0100908D01*
X0083520Y0099309D02*
X0015190Y0099309D01*
X0015760Y0097711D02*
X0082860Y0097711D01*
X0082860Y0096112D02*
X0015760Y0096112D01*
X0015283Y0094514D02*
X0083428Y0094514D01*
X0084839Y0092915D02*
X0014236Y0092915D01*
X0013604Y0091317D02*
X0097460Y0091317D01*
X0097460Y0092915D02*
X0095281Y0092915D01*
X0096692Y0094514D02*
X0097460Y0094514D01*
X0097460Y0096112D02*
X0097260Y0096112D01*
X0097260Y0097711D02*
X0097460Y0097711D01*
X0102660Y0097711D02*
X0105472Y0097711D01*
X0103874Y0099309D02*
X0102660Y0099309D01*
X0102660Y0096112D02*
X0107071Y0096112D01*
X0108786Y0094514D02*
X0102660Y0094514D01*
X0102660Y0092915D02*
X0114839Y0092915D01*
X0116344Y0091317D02*
X0102660Y0091317D01*
X0102660Y0089718D02*
X0113873Y0089718D01*
X0113028Y0088120D02*
X0102660Y0088120D01*
X0102660Y0086521D02*
X0112860Y0086521D01*
X0113259Y0084923D02*
X0102660Y0084923D01*
X0102660Y0083324D02*
X0114431Y0083324D01*
X0114854Y0080700D02*
X0113560Y0079406D01*
X0112860Y0077715D01*
X0112860Y0075885D01*
X0113560Y0074194D01*
X0114854Y0072900D01*
X0116545Y0072200D01*
X0123575Y0072200D01*
X0125266Y0072900D01*
X0126560Y0074194D01*
X0127260Y0075885D01*
X0127260Y0077715D01*
X0126560Y0079406D01*
X0125266Y0080700D01*
X0123575Y0081400D01*
X0116545Y0081400D01*
X0114854Y0080700D01*
X0114282Y0080127D02*
X0102660Y0080127D01*
X0102660Y0078529D02*
X0113197Y0078529D01*
X0112860Y0076930D02*
X0102660Y0076930D01*
X0102660Y0075332D02*
X0113089Y0075332D01*
X0114022Y0073733D02*
X0102660Y0073733D01*
X0102660Y0072134D02*
X0194164Y0072134D01*
X0193518Y0070536D02*
X0125004Y0070536D01*
X0124966Y0070563D02*
X0124349Y0070878D01*
X0123690Y0071092D01*
X0123006Y0071200D01*
X0120060Y0071200D01*
X0120060Y0066800D01*
X0127060Y0066800D01*
X0127060Y0067146D01*
X0126952Y0067830D01*
X0126738Y0068489D01*
X0126423Y0069106D01*
X0126016Y0069666D01*
X0125526Y0070156D01*
X0124966Y0070563D01*
X0126509Y0068937D02*
X0192476Y0068937D01*
X0192077Y0067339D02*
X0127029Y0067339D01*
X0127060Y0066800D02*
X0120060Y0066800D01*
X0120060Y0066800D01*
X0120060Y0066800D01*
X0120060Y0062400D01*
X0123006Y0062400D01*
X0123690Y0062508D01*
X0124349Y0062722D01*
X0124966Y0063037D01*
X0125526Y0063444D01*
X0126016Y0063934D01*
X0126423Y0064494D01*
X0126738Y0065111D01*
X0126952Y0065770D01*
X0127060Y0066454D01*
X0127060Y0066800D01*
X0126942Y0065740D02*
X0192159Y0065740D01*
X0192742Y0064142D02*
X0126167Y0064142D01*
X0123798Y0062543D02*
X0194061Y0062543D01*
X0197110Y0060945D02*
X0124674Y0060945D01*
X0125266Y0060700D02*
X0123575Y0061400D01*
X0116545Y0061400D01*
X0114854Y0060700D01*
X0113560Y0059406D01*
X0112860Y0057715D01*
X0112860Y0055885D01*
X0113560Y0054194D01*
X0114854Y0052900D01*
X0116545Y0052200D01*
X0123575Y0052200D01*
X0125266Y0052900D01*
X0126560Y0054194D01*
X0127260Y0055885D01*
X0127260Y0057715D01*
X0126560Y0059406D01*
X0125266Y0060700D01*
X0126584Y0059346D02*
X0197110Y0059346D01*
X0197110Y0057748D02*
X0127246Y0057748D01*
X0127260Y0056149D02*
X0197110Y0056149D01*
X0197110Y0054551D02*
X0126707Y0054551D01*
X0125318Y0052952D02*
X0197110Y0052952D01*
X0197110Y0051354D02*
X0123686Y0051354D01*
X0123575Y0051400D02*
X0125266Y0050700D01*
X0126560Y0049406D01*
X0127260Y0047715D01*
X0127260Y0045885D01*
X0126560Y0044194D01*
X0125266Y0042900D01*
X0123575Y0042200D01*
X0116545Y0042200D01*
X0114854Y0042900D01*
X0113560Y0044194D01*
X0112860Y0045885D01*
X0112860Y0047715D01*
X0113560Y0049406D01*
X0114854Y0050700D01*
X0116545Y0051400D01*
X0123575Y0051400D01*
X0126210Y0049755D02*
X0197110Y0049755D01*
X0197110Y0048157D02*
X0127077Y0048157D01*
X0127260Y0046558D02*
X0197110Y0046558D01*
X0197110Y0044960D02*
X0126877Y0044960D01*
X0125727Y0043361D02*
X0197110Y0043361D01*
X0197110Y0041763D02*
X0102660Y0041763D01*
X0102660Y0043361D02*
X0114393Y0043361D01*
X0113243Y0044960D02*
X0102660Y0044960D01*
X0102660Y0046558D02*
X0112860Y0046558D01*
X0113043Y0048157D02*
X0102660Y0048157D01*
X0102660Y0049755D02*
X0113910Y0049755D01*
X0116434Y0051354D02*
X0102660Y0051354D01*
X0102660Y0052952D02*
X0114802Y0052952D01*
X0113413Y0054551D02*
X0102660Y0054551D01*
X0102660Y0056149D02*
X0112860Y0056149D01*
X0112874Y0057748D02*
X0102660Y0057748D01*
X0102660Y0059346D02*
X0113536Y0059346D01*
X0115446Y0060945D02*
X0102660Y0060945D01*
X0102660Y0062543D02*
X0116322Y0062543D01*
X0116430Y0062508D02*
X0117114Y0062400D01*
X0120060Y0062400D01*
X0120060Y0066800D01*
X0120060Y0066800D01*
X0120060Y0066800D01*
X0113060Y0066800D01*
X0113060Y0067146D01*
X0113168Y0067830D01*
X0113382Y0068489D01*
X0113697Y0069106D01*
X0114104Y0069666D01*
X0114594Y0070156D01*
X0115154Y0070563D01*
X0115771Y0070878D01*
X0116430Y0071092D01*
X0117114Y0071200D01*
X0120060Y0071200D01*
X0120060Y0066800D01*
X0113060Y0066800D01*
X0113060Y0066454D01*
X0113168Y0065770D01*
X0113382Y0065111D01*
X0113697Y0064494D01*
X0114104Y0063934D01*
X0114594Y0063444D01*
X0115154Y0063037D01*
X0115771Y0062722D01*
X0116430Y0062508D01*
X0113952Y0064142D02*
X0102660Y0064142D01*
X0102660Y0065740D02*
X0113178Y0065740D01*
X0113091Y0067339D02*
X0102660Y0067339D01*
X0102660Y0068937D02*
X0113611Y0068937D01*
X0115116Y0070536D02*
X0102660Y0070536D01*
X0097460Y0070536D02*
X0095429Y0070536D01*
X0095266Y0070700D02*
X0093575Y0071400D01*
X0086545Y0071400D01*
X0084854Y0070700D01*
X0083560Y0069406D01*
X0082860Y0067715D01*
X0082860Y0065885D01*
X0083560Y0064194D01*
X0084854Y0062900D01*
X0086545Y0062200D01*
X0093575Y0062200D01*
X0095266Y0062900D01*
X0096560Y0064194D01*
X0097260Y0065885D01*
X0097260Y0067715D01*
X0096560Y0069406D01*
X0095266Y0070700D01*
X0095266Y0072900D02*
X0096560Y0074194D01*
X0097260Y0075885D01*
X0097260Y0077715D01*
X0096560Y0079406D01*
X0095266Y0080700D01*
X0093575Y0081400D01*
X0086545Y0081400D01*
X0084854Y0080700D01*
X0083560Y0079406D01*
X0082860Y0077715D01*
X0082860Y0075885D01*
X0083560Y0074194D01*
X0084854Y0072900D01*
X0086545Y0072200D01*
X0093575Y0072200D01*
X0095266Y0072900D01*
X0096098Y0073733D02*
X0097460Y0073733D01*
X0097460Y0072134D02*
X0070560Y0072134D01*
X0070560Y0072233D02*
X0070425Y0073088D01*
X0070157Y0073911D01*
X0069764Y0074683D01*
X0069255Y0075383D01*
X0068643Y0075995D01*
X0067943Y0076504D01*
X0067596Y0076681D01*
X0068289Y0076968D01*
X0069892Y0078571D01*
X0070760Y0080666D01*
X0070760Y0082934D01*
X0069892Y0085029D01*
X0068289Y0086632D01*
X0066194Y0087500D01*
X0063926Y0087500D01*
X0061831Y0086632D01*
X0060228Y0085029D01*
X0059360Y0082934D01*
X0059360Y0080666D01*
X0060228Y0078571D01*
X0061831Y0076968D01*
X0062524Y0076681D01*
X0062177Y0076504D01*
X0061477Y0075995D01*
X0060865Y0075383D01*
X0060356Y0074683D01*
X0059963Y0073911D01*
X0059695Y0073088D01*
X0059560Y0072233D01*
X0059560Y0072000D01*
X0064860Y0072000D01*
X0064860Y0071600D01*
X0059560Y0071600D01*
X0059560Y0071367D01*
X0059695Y0070512D01*
X0059963Y0069689D01*
X0060356Y0068917D01*
X0060865Y0068217D01*
X0061477Y0067605D01*
X0062177Y0067096D01*
X0062524Y0066919D01*
X0061831Y0066632D01*
X0060228Y0065029D01*
X0059360Y0062934D01*
X0059360Y0060666D01*
X0060228Y0058571D01*
X0061831Y0056968D01*
X0063926Y0056100D01*
X0066194Y0056100D01*
X0068289Y0056968D01*
X0069892Y0058571D01*
X0070760Y0060666D01*
X0070760Y0062934D01*
X0069892Y0065029D01*
X0068289Y0066632D01*
X0067596Y0066919D01*
X0067943Y0067096D01*
X0068643Y0067605D01*
X0069255Y0068217D01*
X0069764Y0068917D01*
X0070157Y0069689D01*
X0070425Y0070512D01*
X0070560Y0071367D01*
X0070560Y0071600D01*
X0065260Y0071600D01*
X0065260Y0072000D01*
X0070560Y0072000D01*
X0070560Y0072233D01*
X0070215Y0073733D02*
X0084022Y0073733D01*
X0083089Y0075332D02*
X0069293Y0075332D01*
X0068198Y0076930D02*
X0082860Y0076930D01*
X0083197Y0078529D02*
X0069850Y0078529D01*
X0070537Y0080127D02*
X0084282Y0080127D01*
X0085771Y0082722D02*
X0086430Y0082508D01*
X0087114Y0082400D01*
X0090060Y0082400D01*
X0093006Y0082400D01*
X0093690Y0082508D01*
X0094349Y0082722D01*
X0094966Y0083037D01*
X0095526Y0083444D01*
X0096016Y0083934D01*
X0096423Y0084494D01*
X0096738Y0085111D01*
X0096952Y0085770D01*
X0097060Y0086454D01*
X0097060Y0086800D01*
X0097060Y0087146D01*
X0096952Y0087830D01*
X0096738Y0088489D01*
X0096423Y0089106D01*
X0096016Y0089666D01*
X0095526Y0090156D01*
X0094966Y0090563D01*
X0094349Y0090878D01*
X0093690Y0091092D01*
X0093006Y0091200D01*
X0090060Y0091200D01*
X0090060Y0086800D01*
X0097060Y0086800D01*
X0090060Y0086800D01*
X0090060Y0086800D01*
X0090060Y0086800D01*
X0090060Y0082400D01*
X0090060Y0086800D01*
X0090060Y0086800D01*
X0090060Y0086800D01*
X0083060Y0086800D01*
X0083060Y0087146D01*
X0083168Y0087830D01*
X0083382Y0088489D01*
X0083697Y0089106D01*
X0084104Y0089666D01*
X0084594Y0090156D01*
X0085154Y0090563D01*
X0085771Y0090878D01*
X0086430Y0091092D01*
X0087114Y0091200D01*
X0090060Y0091200D01*
X0090060Y0086800D01*
X0083060Y0086800D01*
X0083060Y0086454D01*
X0083168Y0085770D01*
X0083382Y0085111D01*
X0083697Y0084494D01*
X0084104Y0083934D01*
X0084594Y0083444D01*
X0085154Y0083037D01*
X0085771Y0082722D01*
X0084758Y0083324D02*
X0070598Y0083324D01*
X0070760Y0081726D02*
X0097460Y0081726D01*
X0097460Y0083324D02*
X0095362Y0083324D01*
X0096642Y0084923D02*
X0097460Y0084923D01*
X0097460Y0086521D02*
X0097060Y0086521D01*
X0096858Y0088120D02*
X0097460Y0088120D01*
X0097460Y0089718D02*
X0095964Y0089718D01*
X0090060Y0089718D02*
X0090060Y0089718D01*
X0090060Y0088120D02*
X0090060Y0088120D01*
X0090060Y0086521D02*
X0090060Y0086521D01*
X0090060Y0084923D02*
X0090060Y0084923D01*
X0090060Y0083324D02*
X0090060Y0083324D01*
X0095838Y0080127D02*
X0097460Y0080127D01*
X0097460Y0078529D02*
X0096923Y0078529D01*
X0097260Y0076930D02*
X0097460Y0076930D01*
X0097460Y0075332D02*
X0097031Y0075332D01*
X0096754Y0068937D02*
X0097460Y0068937D01*
X0097460Y0067339D02*
X0097260Y0067339D01*
X0097200Y0065740D02*
X0097460Y0065740D01*
X0097460Y0064142D02*
X0096507Y0064142D01*
X0097460Y0062543D02*
X0094404Y0062543D01*
X0093575Y0061400D02*
X0095266Y0060700D01*
X0096560Y0059406D01*
X0097260Y0057715D01*
X0097260Y0055885D01*
X0096560Y0054194D01*
X0095266Y0052900D01*
X0093575Y0052200D01*
X0086545Y0052200D01*
X0084854Y0052900D01*
X0083560Y0054194D01*
X0082860Y0055885D01*
X0082860Y0057715D01*
X0083560Y0059406D01*
X0084854Y0060700D01*
X0086545Y0061400D01*
X0093575Y0061400D01*
X0094674Y0060945D02*
X0097460Y0060945D01*
X0097460Y0059346D02*
X0096584Y0059346D01*
X0097246Y0057748D02*
X0097460Y0057748D01*
X0097460Y0056149D02*
X0097260Y0056149D01*
X0097460Y0054551D02*
X0096707Y0054551D01*
X0097460Y0052952D02*
X0095318Y0052952D01*
X0093686Y0051354D02*
X0097460Y0051354D01*
X0097460Y0049755D02*
X0096210Y0049755D01*
X0097077Y0048157D02*
X0097460Y0048157D01*
X0097460Y0046558D02*
X0097260Y0046558D01*
X0097460Y0044960D02*
X0096877Y0044960D01*
X0097460Y0043361D02*
X0095727Y0043361D01*
X0097460Y0041763D02*
X0088700Y0041763D01*
X0082944Y0043361D02*
X0062176Y0043361D01*
X0062660Y0041763D02*
X0081346Y0041763D01*
X0079747Y0040164D02*
X0062101Y0040164D01*
X0058019Y0040164D02*
X0054660Y0040164D01*
X0054660Y0041763D02*
X0056420Y0041763D01*
X0054822Y0043361D02*
X0054660Y0043361D01*
X0051625Y0046558D02*
X0018979Y0046558D01*
X0020577Y0044960D02*
X0031997Y0044960D01*
X0033237Y0046200D02*
X0030660Y0043623D01*
X0030660Y0041800D01*
X0035060Y0041800D01*
X0039460Y0041800D01*
X0039460Y0043623D01*
X0036883Y0046200D01*
X0035060Y0046200D01*
X0035060Y0041800D01*
X0035060Y0041800D01*
X0035060Y0041800D01*
X0039460Y0041800D01*
X0039460Y0039977D01*
X0036883Y0037400D01*
X0035060Y0037400D01*
X0035060Y0041800D01*
X0035060Y0041800D01*
X0035060Y0041800D01*
X0035060Y0046200D01*
X0033237Y0046200D01*
X0035060Y0044960D02*
X0035060Y0044960D01*
X0035060Y0043361D02*
X0035060Y0043361D01*
X0035060Y0041800D02*
X0030660Y0041800D01*
X0030660Y0039977D01*
X0033237Y0037400D01*
X0035060Y0037400D01*
X0035060Y0041800D01*
X0035060Y0041763D02*
X0035060Y0041763D01*
X0035060Y0040164D02*
X0035060Y0040164D01*
X0035060Y0038566D02*
X0035060Y0038566D01*
X0038048Y0038566D02*
X0046789Y0038566D01*
X0045460Y0040164D02*
X0039460Y0040164D01*
X0039460Y0041763D02*
X0045460Y0041763D01*
X0045460Y0043361D02*
X0039460Y0043361D01*
X0038123Y0044960D02*
X0046714Y0044960D01*
X0050026Y0048157D02*
X0022922Y0048157D01*
X0024521Y0049755D02*
X0048428Y0049755D01*
X0047460Y0051354D02*
X0024660Y0051354D01*
X0024889Y0052952D02*
X0047460Y0052952D01*
X0047460Y0054551D02*
X0026488Y0054551D01*
X0028086Y0056149D02*
X0047460Y0056149D01*
X0047460Y0057748D02*
X0029685Y0057748D01*
X0031283Y0059346D02*
X0047460Y0059346D01*
X0047460Y0060945D02*
X0032882Y0060945D01*
X0034480Y0062543D02*
X0047460Y0062543D01*
X0047460Y0064142D02*
X0036079Y0064142D01*
X0037435Y0065740D02*
X0047460Y0065740D01*
X0047460Y0067339D02*
X0037660Y0067339D01*
X0037660Y0068937D02*
X0047460Y0068937D01*
X0047460Y0070536D02*
X0037660Y0070536D01*
X0037660Y0072134D02*
X0047460Y0072134D01*
X0047460Y0073733D02*
X0037660Y0073733D01*
X0037660Y0075332D02*
X0047460Y0075332D01*
X0047460Y0076930D02*
X0037660Y0076930D01*
X0038294Y0078529D02*
X0046826Y0078529D01*
X0045460Y0080127D02*
X0039660Y0080127D01*
X0039660Y0081726D02*
X0045460Y0081726D01*
X0044791Y0083324D02*
X0039660Y0083324D01*
X0032460Y0077895D02*
X0032460Y0067877D01*
X0020983Y0056400D01*
X0018155Y0056400D01*
X0015460Y0053705D01*
X0015460Y0050077D01*
X0014660Y0050877D01*
X0014660Y0053705D01*
X0011965Y0056400D01*
X0009860Y0056400D01*
X0009860Y0066600D01*
X0010260Y0066600D01*
X0010260Y0067000D01*
X0015560Y0067000D01*
X0015560Y0067233D01*
X0015425Y0068088D01*
X0015157Y0068911D01*
X0014764Y0069683D01*
X0014255Y0070383D01*
X0013643Y0070995D01*
X0012943Y0071504D01*
X0012596Y0071681D01*
X0013289Y0071968D01*
X0014892Y0073571D01*
X0015153Y0074200D01*
X0020577Y0074200D01*
X0021533Y0074596D01*
X0030460Y0083523D01*
X0030460Y0079895D01*
X0032460Y0077895D01*
X0031826Y0078529D02*
X0025465Y0078529D01*
X0023867Y0076930D02*
X0032460Y0076930D01*
X0032460Y0075332D02*
X0022268Y0075332D01*
X0019710Y0080127D02*
X0014794Y0080127D01*
X0013063Y0081726D02*
X0021309Y0081726D01*
X0022907Y0083324D02*
X0014645Y0083324D01*
X0015452Y0084923D02*
X0024506Y0084923D01*
X0026104Y0086521D02*
X0015760Y0086521D01*
X0015683Y0088120D02*
X0027703Y0088120D01*
X0030261Y0083324D02*
X0030460Y0083324D01*
X0030460Y0081726D02*
X0028662Y0081726D01*
X0027064Y0080127D02*
X0030460Y0080127D01*
X0032460Y0073733D02*
X0014959Y0073733D01*
X0013456Y0072134D02*
X0032460Y0072134D01*
X0032460Y0070536D02*
X0014102Y0070536D01*
X0015144Y0068937D02*
X0032460Y0068937D01*
X0031922Y0067339D02*
X0015543Y0067339D01*
X0015560Y0066600D02*
X0010260Y0066600D01*
X0010260Y0061300D01*
X0010493Y0061300D01*
X0011348Y0061435D01*
X0012171Y0061703D01*
X0012943Y0062096D01*
X0013643Y0062605D01*
X0014255Y0063217D01*
X0014764Y0063917D01*
X0015157Y0064689D01*
X0015425Y0065512D01*
X0015560Y0066367D01*
X0015560Y0066600D01*
X0015461Y0065740D02*
X0030323Y0065740D01*
X0028725Y0064142D02*
X0014878Y0064142D01*
X0013558Y0062543D02*
X0027126Y0062543D01*
X0025528Y0060945D02*
X0009860Y0060945D01*
X0009860Y0062543D02*
X0010260Y0062543D01*
X0010260Y0064142D02*
X0009860Y0064142D01*
X0009860Y0065740D02*
X0010260Y0065740D01*
X0009860Y0059346D02*
X0023929Y0059346D01*
X0022331Y0057748D02*
X0009860Y0057748D01*
X0012216Y0056149D02*
X0017904Y0056149D01*
X0016305Y0054551D02*
X0013814Y0054551D01*
X0014660Y0052952D02*
X0015460Y0052952D01*
X0015460Y0051354D02*
X0014660Y0051354D01*
X0011625Y0046558D02*
X0009860Y0046558D01*
X0009860Y0044960D02*
X0013223Y0044960D01*
X0014822Y0043361D02*
X0009860Y0043361D01*
X0009860Y0041763D02*
X0016420Y0041763D01*
X0018019Y0040164D02*
X0009860Y0040164D01*
X0009860Y0038566D02*
X0019617Y0038566D01*
X0017640Y0036967D02*
X0009860Y0036967D01*
X0009860Y0035369D02*
X0015568Y0035369D01*
X0014706Y0033770D02*
X0009860Y0033770D01*
X0009860Y0032172D02*
X0014360Y0032172D01*
X0014398Y0030573D02*
X0009860Y0030573D01*
X0009860Y0028975D02*
X0015061Y0028975D01*
X0016423Y0027376D02*
X0009860Y0027376D01*
X0009860Y0025778D02*
X0047532Y0025778D01*
X0048155Y0026400D02*
X0045460Y0023705D01*
X0045460Y0019895D01*
X0048155Y0017200D01*
X0051965Y0017200D01*
X0054660Y0019895D01*
X0054660Y0023705D01*
X0051965Y0026400D01*
X0048155Y0026400D01*
X0045934Y0024179D02*
X0009860Y0024179D01*
X0009860Y0022581D02*
X0045460Y0022581D01*
X0045460Y0020982D02*
X0009860Y0020982D01*
X0009860Y0019384D02*
X0045971Y0019384D01*
X0047569Y0017785D02*
X0009860Y0017785D01*
X0009860Y0016187D02*
X0016740Y0016187D01*
X0015308Y0014588D02*
X0009860Y0014588D01*
X0009860Y0012990D02*
X0014680Y0012990D01*
X0014560Y0011391D02*
X0009860Y0011391D01*
X0009860Y0009793D02*
X0014929Y0009793D01*
X0015888Y0008194D02*
X0009860Y0008194D01*
X0019860Y0012990D02*
X0020260Y0012990D01*
X0020260Y0014588D02*
X0019860Y0014588D01*
X0019860Y0016187D02*
X0020260Y0016187D01*
X0023379Y0016187D02*
X0048224Y0016187D01*
X0048237Y0016200D02*
X0045660Y0013623D01*
X0045660Y0011800D01*
X0050060Y0011800D01*
X0054460Y0011800D01*
X0054460Y0013623D01*
X0051883Y0016200D01*
X0050060Y0016200D01*
X0050060Y0011800D01*
X0050060Y0011800D01*
X0050060Y0011800D01*
X0054460Y0011800D01*
X0054460Y0009977D01*
X0051883Y0007400D01*
X0050060Y0007400D01*
X0050060Y0011800D01*
X0050060Y0011800D01*
X0050060Y0011800D01*
X0050060Y0016200D01*
X0048237Y0016200D01*
X0050060Y0016187D02*
X0050060Y0016187D01*
X0050060Y0014588D02*
X0050060Y0014588D01*
X0050060Y0012990D02*
X0050060Y0012990D01*
X0050060Y0011800D02*
X0045660Y0011800D01*
X0045660Y0009977D01*
X0048237Y0007400D01*
X0050060Y0007400D01*
X0050060Y0011800D01*
X0050060Y0011391D02*
X0050060Y0011391D01*
X0050060Y0009793D02*
X0050060Y0009793D01*
X0050060Y0008194D02*
X0050060Y0008194D01*
X0052677Y0008194D02*
X0067443Y0008194D01*
X0068237Y0007400D02*
X0070060Y0007400D01*
X0071883Y0007400D01*
X0074460Y0009977D01*
X0074460Y0011800D01*
X0074460Y0013623D01*
X0071883Y0016200D01*
X0070060Y0016200D01*
X0070060Y0011800D01*
X0074460Y0011800D01*
X0070060Y0011800D01*
X0070060Y0011800D01*
X0070060Y0011800D01*
X0070060Y0007400D01*
X0070060Y0011800D01*
X0070060Y0011800D01*
X0070060Y0011800D01*
X0065660Y0011800D01*
X0065660Y0013623D01*
X0068237Y0016200D01*
X0070060Y0016200D01*
X0070060Y0011800D01*
X0065660Y0011800D01*
X0065660Y0009977D01*
X0068237Y0007400D01*
X0070060Y0008194D02*
X0070060Y0008194D01*
X0070060Y0009793D02*
X0070060Y0009793D01*
X0070060Y0011391D02*
X0070060Y0011391D01*
X0070060Y0012990D02*
X0070060Y0012990D01*
X0070060Y0014588D02*
X0070060Y0014588D01*
X0070060Y0016187D02*
X0070060Y0016187D01*
X0071896Y0016187D02*
X0107941Y0016187D01*
X0108155Y0016400D02*
X0105460Y0013705D01*
X0105460Y0009895D01*
X0108155Y0007200D01*
X0111965Y0007200D01*
X0114660Y0009895D01*
X0114660Y0013705D01*
X0111965Y0016400D01*
X0108155Y0016400D01*
X0106343Y0014588D02*
X0073494Y0014588D01*
X0074460Y0012990D02*
X0105460Y0012990D01*
X0105460Y0011391D02*
X0074460Y0011391D01*
X0074275Y0009793D02*
X0105562Y0009793D01*
X0107161Y0008194D02*
X0072677Y0008194D01*
X0066626Y0014588D02*
X0053494Y0014588D01*
X0054460Y0012990D02*
X0065660Y0012990D01*
X0065660Y0011391D02*
X0054460Y0011391D01*
X0054275Y0009793D02*
X0065845Y0009793D01*
X0068224Y0016187D02*
X0051896Y0016187D01*
X0052550Y0017785D02*
X0150489Y0017785D01*
X0150460Y0017715D02*
X0150460Y0015885D01*
X0151160Y0014194D01*
X0152454Y0012900D01*
X0154145Y0012200D01*
X0155975Y0012200D01*
X0157666Y0012900D01*
X0158960Y0014194D01*
X0159660Y0015885D01*
X0159660Y0017715D01*
X0158960Y0019406D01*
X0157666Y0020700D01*
X0155975Y0021400D01*
X0154145Y0021400D01*
X0152454Y0020700D01*
X0151160Y0019406D01*
X0150460Y0017715D01*
X0150460Y0016187D02*
X0142179Y0016187D01*
X0141965Y0016400D02*
X0138155Y0016400D01*
X0135460Y0013705D01*
X0135460Y0009895D01*
X0138155Y0007200D01*
X0141965Y0007200D01*
X0144660Y0009895D01*
X0144660Y0013705D01*
X0141965Y0016400D01*
X0143777Y0014588D02*
X0150997Y0014588D01*
X0152365Y0012990D02*
X0144660Y0012990D01*
X0144660Y0011391D02*
X0197110Y0011391D01*
X0197110Y0009793D02*
X0144558Y0009793D01*
X0142959Y0008194D02*
X0197110Y0008194D01*
X0197110Y0012990D02*
X0177472Y0012990D01*
X0176883Y0012400D02*
X0179460Y0014977D01*
X0179460Y0016800D01*
X0179460Y0018623D01*
X0176883Y0021200D01*
X0175060Y0021200D01*
X0175060Y0016800D01*
X0179460Y0016800D01*
X0175060Y0016800D01*
X0175060Y0016800D01*
X0175060Y0016800D01*
X0175060Y0012400D01*
X0176883Y0012400D01*
X0175060Y0012400D02*
X0175060Y0016800D01*
X0175060Y0016800D01*
X0175060Y0016800D01*
X0170660Y0016800D01*
X0170660Y0018623D01*
X0173237Y0021200D01*
X0175060Y0021200D01*
X0175060Y0016800D01*
X0170660Y0016800D01*
X0170660Y0014977D01*
X0173237Y0012400D01*
X0175060Y0012400D01*
X0175060Y0012990D02*
X0175060Y0012990D01*
X0175060Y0014588D02*
X0175060Y0014588D01*
X0175060Y0016187D02*
X0175060Y0016187D01*
X0175060Y0017785D02*
X0175060Y0017785D01*
X0175060Y0019384D02*
X0175060Y0019384D01*
X0175060Y0020982D02*
X0175060Y0020982D01*
X0177100Y0020982D02*
X0197110Y0020982D01*
X0197110Y0019384D02*
X0178699Y0019384D01*
X0179460Y0017785D02*
X0197110Y0017785D01*
X0197110Y0016187D02*
X0179460Y0016187D01*
X0179071Y0014588D02*
X0197110Y0014588D01*
X0197110Y0022581D02*
X0124494Y0022581D01*
X0125266Y0022900D02*
X0126560Y0024194D01*
X0127260Y0025885D01*
X0127260Y0027715D01*
X0126560Y0029406D01*
X0125266Y0030700D01*
X0123575Y0031400D01*
X0116545Y0031400D01*
X0114854Y0030700D01*
X0113560Y0029406D01*
X0112860Y0027715D01*
X0112860Y0025885D01*
X0113560Y0024194D01*
X0114854Y0022900D01*
X0116545Y0022200D01*
X0123575Y0022200D01*
X0125266Y0022900D01*
X0126545Y0024179D02*
X0197110Y0024179D01*
X0197110Y0025778D02*
X0127216Y0025778D01*
X0127260Y0027376D02*
X0197110Y0027376D01*
X0197110Y0028975D02*
X0126738Y0028975D01*
X0125392Y0030573D02*
X0197110Y0030573D01*
X0197110Y0032172D02*
X0102660Y0032172D01*
X0102660Y0033770D02*
X0113984Y0033770D01*
X0113560Y0034194D02*
X0114854Y0032900D01*
X0116545Y0032200D01*
X0123575Y0032200D01*
X0125266Y0032900D01*
X0126560Y0034194D01*
X0127260Y0035885D01*
X0127260Y0037715D01*
X0126560Y0039406D01*
X0125266Y0040700D01*
X0123575Y0041400D01*
X0116545Y0041400D01*
X0114854Y0040700D01*
X0113560Y0039406D01*
X0112860Y0037715D01*
X0112860Y0035885D01*
X0113560Y0034194D01*
X0113074Y0035369D02*
X0102660Y0035369D01*
X0102660Y0036967D02*
X0112860Y0036967D01*
X0113212Y0038566D02*
X0102660Y0038566D01*
X0102660Y0040164D02*
X0114319Y0040164D01*
X0114728Y0030573D02*
X0102366Y0030573D01*
X0101533Y0029596D02*
X0101533Y0029596D01*
X0100912Y0028975D02*
X0113382Y0028975D01*
X0112860Y0027376D02*
X0099313Y0027376D01*
X0097715Y0025778D02*
X0112904Y0025778D01*
X0113575Y0024179D02*
X0096545Y0024179D01*
X0094494Y0022581D02*
X0115626Y0022581D01*
X0112179Y0016187D02*
X0127941Y0016187D01*
X0128155Y0016400D02*
X0125460Y0013705D01*
X0125460Y0009895D01*
X0128155Y0007200D01*
X0131965Y0007200D01*
X0134660Y0009895D01*
X0134660Y0013705D01*
X0131965Y0016400D01*
X0128155Y0016400D01*
X0126343Y0014588D02*
X0113777Y0014588D01*
X0114660Y0012990D02*
X0125460Y0012990D01*
X0125460Y0011391D02*
X0114660Y0011391D01*
X0114558Y0009793D02*
X0125562Y0009793D01*
X0127161Y0008194D02*
X0112959Y0008194D01*
X0132959Y0008194D02*
X0137161Y0008194D01*
X0135562Y0009793D02*
X0134558Y0009793D01*
X0134660Y0011391D02*
X0135460Y0011391D01*
X0135460Y0012990D02*
X0134660Y0012990D01*
X0133777Y0014588D02*
X0136343Y0014588D01*
X0137941Y0016187D02*
X0132179Y0016187D01*
X0126136Y0033770D02*
X0197110Y0033770D01*
X0197110Y0035369D02*
X0127046Y0035369D01*
X0127260Y0036967D02*
X0197110Y0036967D01*
X0197110Y0038566D02*
X0126908Y0038566D01*
X0125801Y0040164D02*
X0197110Y0040164D01*
X0173020Y0020982D02*
X0156984Y0020982D01*
X0158969Y0019384D02*
X0171421Y0019384D01*
X0170660Y0017785D02*
X0159631Y0017785D01*
X0159660Y0016187D02*
X0170660Y0016187D01*
X0171049Y0014588D02*
X0159123Y0014588D01*
X0157755Y0012990D02*
X0172648Y0012990D01*
X0153136Y0020982D02*
X0054660Y0020982D01*
X0054660Y0022581D02*
X0085626Y0022581D01*
X0083575Y0024179D02*
X0054186Y0024179D01*
X0052588Y0025778D02*
X0082904Y0025778D01*
X0082860Y0027376D02*
X0023697Y0027376D01*
X0025059Y0028975D02*
X0083382Y0028975D01*
X0084728Y0030573D02*
X0077510Y0030573D01*
X0079109Y0032172D02*
X0096755Y0032172D01*
X0096136Y0033770D02*
X0097460Y0033770D01*
X0097460Y0035369D02*
X0097046Y0035369D01*
X0097260Y0036967D02*
X0097460Y0036967D01*
X0097460Y0038566D02*
X0096908Y0038566D01*
X0097460Y0040164D02*
X0095801Y0040164D01*
X0083984Y0033770D02*
X0080707Y0033770D01*
X0082306Y0035369D02*
X0083074Y0035369D01*
X0078149Y0038566D02*
X0053331Y0038566D01*
X0060577Y0044960D02*
X0083243Y0044960D01*
X0082860Y0046558D02*
X0058979Y0046558D01*
X0057380Y0048157D02*
X0083043Y0048157D01*
X0083910Y0049755D02*
X0055782Y0049755D01*
X0054183Y0051354D02*
X0086434Y0051354D01*
X0084802Y0052952D02*
X0052660Y0052952D01*
X0052660Y0054551D02*
X0083413Y0054551D01*
X0082860Y0056149D02*
X0066313Y0056149D01*
X0063807Y0056149D02*
X0052660Y0056149D01*
X0052660Y0057748D02*
X0061051Y0057748D01*
X0059907Y0059346D02*
X0052660Y0059346D01*
X0052660Y0060945D02*
X0059360Y0060945D01*
X0059360Y0062543D02*
X0052660Y0062543D01*
X0052660Y0064142D02*
X0059860Y0064142D01*
X0060939Y0065740D02*
X0052660Y0065740D01*
X0052660Y0067339D02*
X0061843Y0067339D01*
X0060346Y0068937D02*
X0052660Y0068937D01*
X0052660Y0070536D02*
X0059692Y0070536D01*
X0059560Y0072134D02*
X0052660Y0072134D01*
X0052660Y0073733D02*
X0059905Y0073733D01*
X0060827Y0075332D02*
X0052660Y0075332D01*
X0052660Y0076930D02*
X0061922Y0076930D01*
X0060270Y0078529D02*
X0053294Y0078529D01*
X0054660Y0080127D02*
X0059583Y0080127D01*
X0059360Y0081726D02*
X0054660Y0081726D01*
X0054660Y0083324D02*
X0059522Y0083324D01*
X0060184Y0084923D02*
X0053443Y0084923D01*
X0048948Y0086521D02*
X0061720Y0086521D01*
X0068400Y0086521D02*
X0083060Y0086521D01*
X0083262Y0088120D02*
X0047349Y0088120D01*
X0069936Y0084923D02*
X0083478Y0084923D01*
X0084156Y0089718D02*
X0015021Y0089718D01*
X0014944Y0113696D02*
X0069487Y0113696D01*
X0067889Y0115294D02*
X0015606Y0115294D01*
X0015760Y0116893D02*
X0066290Y0116893D01*
X0064692Y0118491D02*
X0015529Y0118491D01*
X0014831Y0120090D02*
X0063093Y0120090D01*
X0061495Y0121688D02*
X0013153Y0121688D01*
X0014608Y0123287D02*
X0059896Y0123287D01*
X0058298Y0124885D02*
X0015437Y0124885D01*
X0015760Y0126484D02*
X0056699Y0126484D01*
X0055101Y0128082D02*
X0015698Y0128082D01*
X0015036Y0129681D02*
X0053502Y0129681D01*
X0051904Y0131279D02*
X0013642Y0131279D01*
X0014199Y0132878D02*
X0050305Y0132878D01*
X0048707Y0134476D02*
X0015267Y0134476D01*
X0015760Y0136075D02*
X0047108Y0136075D01*
X0045510Y0137673D02*
X0015760Y0137673D01*
X0015206Y0139272D02*
X0043911Y0139272D01*
X0042313Y0140870D02*
X0014051Y0140870D01*
X0011269Y0142469D02*
X0040714Y0142469D01*
X0039116Y0144068D02*
X0009860Y0144068D01*
X0009860Y0145666D02*
X0037517Y0145666D01*
X0035919Y0147265D02*
X0009860Y0147265D01*
X0009860Y0148863D02*
X0034320Y0148863D01*
X0032800Y0150462D02*
X0009860Y0150462D01*
X0009860Y0152060D02*
X0032460Y0152060D01*
X0032460Y0153659D02*
X0009860Y0153659D01*
X0009860Y0155257D02*
X0032460Y0155257D01*
X0017984Y0160053D02*
X0009860Y0160053D01*
X0009860Y0161651D02*
X0015076Y0161651D01*
X0013554Y0163250D02*
X0009860Y0163250D01*
X0009860Y0164848D02*
X0012892Y0164848D01*
X0012450Y0166447D02*
X0009860Y0166447D01*
X0009860Y0168045D02*
X0012450Y0168045D01*
X0012740Y0169644D02*
X0009860Y0169644D01*
X0009860Y0171242D02*
X0013402Y0171242D01*
X0014708Y0172841D02*
X0009860Y0172841D01*
X0009860Y0174439D02*
X0017095Y0174439D01*
X0017904Y0188826D02*
X0009860Y0188826D01*
X0009860Y0190424D02*
X0015043Y0190424D01*
X0013541Y0192023D02*
X0009860Y0192023D01*
X0009860Y0193621D02*
X0012878Y0193621D01*
X0052660Y0156856D02*
X0082860Y0156856D01*
X0083120Y0155257D02*
X0067825Y0155257D01*
X0065060Y0155257D02*
X0065060Y0155257D01*
X0065060Y0153659D02*
X0065060Y0153659D01*
X0065060Y0152060D02*
X0065060Y0152060D01*
X0065060Y0150462D02*
X0065060Y0150462D01*
X0065060Y0148863D02*
X0065060Y0148863D01*
X0061469Y0144068D02*
X0083687Y0144068D01*
X0082951Y0145666D02*
X0059871Y0145666D01*
X0068219Y0158454D02*
X0083166Y0158454D01*
X0084207Y0160053D02*
X0069660Y0160053D01*
X0126769Y0108900D02*
X0152460Y0108900D01*
X0152460Y0107302D02*
X0127260Y0107302D01*
X0127185Y0105703D02*
X0152460Y0105703D01*
X0152460Y0104105D02*
X0126470Y0104105D01*
X0128031Y0102506D02*
X0152460Y0102506D01*
X0152460Y0100908D02*
X0142175Y0100908D01*
X0141883Y0101200D02*
X0140060Y0101200D01*
X0140060Y0096800D01*
X0144460Y0096800D01*
X0144460Y0098623D01*
X0141883Y0101200D01*
X0140060Y0101200D02*
X0138237Y0101200D01*
X0135660Y0098623D01*
X0135660Y0096800D01*
X0140060Y0096800D01*
X0140060Y0096800D01*
X0140060Y0096800D01*
X0144460Y0096800D01*
X0144460Y0094977D01*
X0141883Y0092400D01*
X0140060Y0092400D01*
X0140060Y0096800D01*
X0140060Y0096800D01*
X0140060Y0096800D01*
X0140060Y0101200D01*
X0140060Y0100908D02*
X0140060Y0100908D01*
X0140060Y0099309D02*
X0140060Y0099309D01*
X0140060Y0097711D02*
X0140060Y0097711D01*
X0140060Y0096800D02*
X0135660Y0096800D01*
X0135660Y0094977D01*
X0138237Y0092400D01*
X0140060Y0092400D01*
X0140060Y0096800D01*
X0140060Y0096112D02*
X0140060Y0096112D01*
X0140060Y0094514D02*
X0140060Y0094514D01*
X0140060Y0092915D02*
X0140060Y0092915D01*
X0137722Y0092915D02*
X0132660Y0092915D01*
X0132660Y0091317D02*
X0152460Y0091317D01*
X0152460Y0092915D02*
X0142398Y0092915D01*
X0143996Y0094514D02*
X0152460Y0094514D01*
X0152460Y0096112D02*
X0144460Y0096112D01*
X0144460Y0097711D02*
X0152460Y0097711D01*
X0152460Y0099309D02*
X0143773Y0099309D01*
X0137945Y0100908D02*
X0129629Y0100908D01*
X0131228Y0099309D02*
X0136347Y0099309D01*
X0135660Y0097711D02*
X0132497Y0097711D01*
X0132660Y0096112D02*
X0135660Y0096112D01*
X0136124Y0094514D02*
X0132660Y0094514D01*
X0127460Y0094514D02*
X0126692Y0094514D01*
X0127460Y0092915D02*
X0125281Y0092915D01*
X0125900Y0091317D02*
X0123776Y0091317D01*
X0128458Y0086521D02*
X0156662Y0086521D01*
X0158260Y0084923D02*
X0126861Y0084923D01*
X0125689Y0083324D02*
X0159859Y0083324D01*
X0161457Y0081726D02*
X0102660Y0081726D01*
X0120060Y0070536D02*
X0120060Y0070536D01*
X0120060Y0068937D02*
X0120060Y0068937D01*
X0120060Y0067339D02*
X0120060Y0067339D01*
X0120060Y0065740D02*
X0120060Y0065740D01*
X0120060Y0064142D02*
X0120060Y0064142D01*
X0120060Y0062543D02*
X0120060Y0062543D01*
X0126098Y0073733D02*
X0136622Y0073733D01*
X0136160Y0074194D02*
X0137454Y0072900D01*
X0139145Y0072200D01*
X0140975Y0072200D01*
X0142666Y0072900D01*
X0143960Y0074194D01*
X0144660Y0075885D01*
X0144660Y0077715D01*
X0143960Y0079406D01*
X0142666Y0080700D01*
X0140975Y0081400D01*
X0139145Y0081400D01*
X0137454Y0080700D01*
X0136160Y0079406D01*
X0135460Y0077715D01*
X0135460Y0075885D01*
X0136160Y0074194D01*
X0135689Y0075332D02*
X0127031Y0075332D01*
X0127260Y0076930D02*
X0135460Y0076930D01*
X0135797Y0078529D02*
X0126923Y0078529D01*
X0125838Y0080127D02*
X0136882Y0080127D01*
X0143238Y0080127D02*
X0163056Y0080127D01*
X0164654Y0078529D02*
X0144323Y0078529D01*
X0144660Y0076930D02*
X0166253Y0076930D01*
X0167852Y0075332D02*
X0144431Y0075332D01*
X0143498Y0073733D02*
X0192661Y0073733D01*
X0155063Y0088120D02*
X0130057Y0088120D01*
X0131655Y0089718D02*
X0153465Y0089718D01*
X0085716Y0062543D02*
X0070760Y0062543D01*
X0070760Y0060945D02*
X0085446Y0060945D01*
X0083536Y0059346D02*
X0070213Y0059346D01*
X0069069Y0057748D02*
X0082874Y0057748D01*
X0083613Y0064142D02*
X0070260Y0064142D01*
X0069181Y0065740D02*
X0082920Y0065740D01*
X0082860Y0067339D02*
X0068277Y0067339D01*
X0069774Y0068937D02*
X0083366Y0068937D01*
X0084691Y0070536D02*
X0070428Y0070536D01*
X0076550Y0036967D02*
X0028570Y0036967D01*
X0030168Y0035369D02*
X0074952Y0035369D01*
X0054149Y0019384D02*
X0151151Y0019384D01*
X0047443Y0008194D02*
X0024232Y0008194D01*
X0025191Y0009793D02*
X0045845Y0009793D01*
X0045660Y0011391D02*
X0025560Y0011391D01*
X0025440Y0012990D02*
X0045660Y0012990D01*
X0046626Y0014588D02*
X0024812Y0014588D01*
X0025721Y0030573D02*
X0027610Y0030573D01*
X0026011Y0032172D02*
X0025760Y0032172D01*
X0026971Y0038566D02*
X0032072Y0038566D01*
X0030660Y0040164D02*
X0025373Y0040164D01*
X0023774Y0041763D02*
X0030660Y0041763D01*
X0030660Y0043361D02*
X0022176Y0043361D01*
X0188517Y0164848D02*
X0192906Y0164848D01*
X0194466Y0163250D02*
X0189660Y0163250D01*
X0189660Y0161651D02*
X0193350Y0161651D01*
M02*
